<svg viewBox="0 0 204.1 100.7" xmlns="http://www.w3.org/2000/svg" width="204.1" height="100.7">
  <rect width="100%" height="100%" fill="transparent" />
  <g fill="black">
      <path d="M104.3,58.8h-25v5.6h25v-5.6Z"/>
      <path d="M115,58.8c-.1-.7-.3-1.5-.4-2.3-2.7.9-7.4,4.7-10.2,2.3,0,.6,0,1.4,0,2.1.9,2,2.7,2.6,4.5,2.4v12.9h2.8v-13.9c1.5-.8,2.8-2.1,3.4-3.5h0Z"/>
      <path d="M104.3,70.9h-25v5.3h25v-5.3Z"/>
      <path d="M123.5,67.7h-5.9v5.9h5.9v-5.9ZM122.9,70.3v2.7h-4.7v-4.7h4.7v2Z"/>
      <path d="M122.9,70.3h-4.7v.6h4.7v-.6Z"/>
      <path d="M122.9,68.2h-4.7v2h4.7v-2Z"/>
      <path d="M122.9,70.9h-4.7v2.1h4.7v-2.1Z"/>
      <path d="M126.1,58.8h-13.9v17.4h16.7v-17.4h-2.8ZM115,64.4h4.1v.6h-4.1v-.6ZM126.1,70.9h-2.6v2.7h-5.9v-2.7h-2.6v-.6h2.6v-2.6h5.9v2.6h2.6v.6ZM126.1,65h-4.1v-.6h4.1v.6Z"/>
      <path d="M99.7,65v.6h-15.9v-.6h-4.6v5.3h4.6v-.6h15.9v.6h4.6v-5.3h-4.6Z"/>
      <path d="M154,67.5v-2.5h0s-2.3,0-2.3,0v-.6h2.3v-5.6h-8.6v-1.8h-3.3v1.8h-8.6v5.6h2.4v.6h-2.4v2.5h-1.1v5.6h1.1v3.1h20.6v-3.1h1.1v-5.6h-1.1ZM145.3,64.4h2.2v.6h-2.2v-.6ZM139.9,64.4h2.1v.6h-2.1v-.6ZM153.2,73.4h-19v-.6h19v.6ZM153.2,67.8h-19v-.6h19v.6Z"/>
      <path d="M133.4,76.2h-4.5v2.4h4.5v-2.4Z"/>
      <path d="M151.5,41.5v13.3h-9.8v-13.2h-44.9v7.2h-6.3v2.2h3.9v1.7c-.4.7-1.2,1.4-2.4,1.8-1.1.5-2.4.7-3.7.7-2.1,0-3.9-.6-5.2-1.7-1.3-1.1-2-2.5-2-4.3s.7-3.1,2-4.3c1.3-1.1,3.1-1.7,5.2-1.7s2.6.2,3.7.7c1.1.5,2,1.2,2.7,2l1.9-1.3c-.9-1.2-2.1-2.1-3.4-2.7-.6-.3-1.3-.5-2-.7,2.6-1.3,4.4-4.1,4.4-7.2,0-4.5-3.6-8.1-8.1-8.1s-8.1,3.6-8.1,8.1,2.1,6.4,5.1,7.5c-1.2.4-2.2,1-3.1,1.7-1.8,1.6-2.7,3.5-2.7,5.9s.9,4.3,2.7,5.9c1.8,1.5,4.1,2.3,7,2.3s3.6-.3,5-1c1.4-.7,2.6-1.7,3.5-3v3.5h57.1v-15.5h-2.5ZM127.6,54.8v-4.9h7.9v-1.5h-10.3v6.4h-11.7v-4.9h7.9v-1.5h-10.3v6.4h-11.7v-4.9h7.9v-1.5h-7.9v-4.6h11.7v3.8h2.4v-3.8h11.7v3.8h2.4v-3.8h11.7v11h-11.7Z"/>
      <path d="M136.7,26.2v10.9l-9.8-10.9h-1.3v11.3l-5.8-11.3h-1.5l-4.9,9.6c-.2-1-.8-1.9-1.7-2.5-1.3-.8-3.1-1.2-5.6-1.2s-3-.1-3.7-.4c-.7-.3-1.1-.8-1.1-1.5s.4-1.2,1.1-1.6c.7-.4,1.7-.6,2.8-.6s2.1.2,3.2.5c1.1.4,2.1.9,3.1,1.5l1.2-2c-1.2-.7-2.4-1.3-3.6-1.7-1.3-.4-2.5-.6-3.9-.6-1.9,0-3.5.4-4.6,1.2-1.2.8-1.7,1.9-1.7,3.2s.5,2.4,1.6,3.1c1.1.6,3,.9,5.8,1,1.7,0,2.9.3,3.7.7.8.4,1.2,1.1,1.2,2s-.4,1.6-1.3,2.2c-.8.6-2,.8-3.3.8s-2.3-.2-3.6-.6c-1.3-.4-2.4-1-3.5-1.7l-1.2,2c1.2.8,2.6,1.4,4.1,1.8,1.5.4,3,.6,4.5.6s2.8-.3,3.9-.8l-.2.3h2.6l2-3.9h8.2l2,3.9h2.9v-10.8l9.8,10.8h1.3v-15.5h-2.4ZM122.1,36.4h-6v-.7l3-5.9,3,5.9v.7h0Z"/>
      <path d="M65.7,31.1c2.9,2.9,4.4,6.5,4.4,10.7s-1.5,7.7-4.4,10.7c-2.9,2.9-6.5,4.4-10.6,4.4s-7.7-1.5-10.6-4.4c-2.9-3-4.4-6.5-4.4-10.7,0-4.1,1.5-7.7,4.4-10.7,2.9-2.9,6.5-4.4,10.6-4.4s7.7,1.5,10.6,4.4h0ZM45.5,32.2c-2.6,2.6-3.9,5.8-3.9,9.5,0,3.8,1.3,6.9,3.9,9.5,2.6,2.6,5.8,3.9,9.5,3.9s6.8-1.3,9.5-3.9c2.6-2.7,3.9-5.8,3.9-9.5s-1.3-6.9-3.9-9.5c-2.6-2.6-5.8-3.9-9.5-3.9s-6.9,1.3-9.5,3.9ZM60.4,33.9c1.4,1.1,2.3,2.5,2.6,4.5h-2.1c-.2-1.3-.9-2.3-1.9-3-1-.7-2.2-1.1-3.6-1.1-2.1,0-3.7.7-4.9,2.1-1.1,1.3-1.7,3.1-1.7,5.3,0,2.2.6,3.9,1.7,5.3,1.1,1.4,2.7,2,4.7,2s2.7-.4,3.7-1.2c1.1-.8,1.7-2,2.1-3.5h2.1c-.5,2.2-1.4,3.9-2.9,5.1-1.4,1.1-3.1,1.6-5.1,1.6s-4.9-.9-6.4-2.8c-1.4-1.7-2.1-3.8-2.1-6.4,0-2.6.7-4.8,2.1-6.5,1.6-1.9,3.7-2.9,6.5-2.9s3.7.5,5,1.5h0Z"/>
    </g>
</svg>
